<?xml version="1.0" encoding="utf-8"?>
<!-- Generator: Adobe Illustrator 16.0.0, SVG Export Plug-In . SVG Version: 6.00 Build 0)  -->
<!DOCTYPE svg PUBLIC "-//W3C//DTD SVG 1.1//EN" "http://www.w3.org/Graphics/SVG/1.1/DTD/svg11.dtd">
<svg version="1.1" xmlns="http://www.w3.org/2000/svg" xmlns:xlink="http://www.w3.org/1999/xlink" x="0px" y="0px" width="1920px"
	 height="1080px" viewBox="0 0 1920 1080" enable-background="new 0 0 1920 1080" xml:space="preserve">
<g id="Layer_1">
	<rect fill="#A64826" width="1920" height="1080"/>
	<rect y="1080" fill="#FCEF91" width="1920" height="599.933"/>
	<rect y="2279.865" fill="#FCEF91" width="1920" height="599.933"/>
	<rect y="1679.933" fill="#F2A25C" width="1920" height="599.933"/>
	<circle fill="#FCEF91" cx="960" cy="-1236" r="393.685"/>
	<circle fill="#F2A25C" cx="-585" cy="815" r="15"/>
	<rect x="-600" y="815" fill="#F2A25C" width="30" height="114.999"/>
	<circle fill="#F2A25C" cx="-550" cy="855" r="15"/>
	<rect x="-565" y="855" fill="#F2A25C" width="30" height="25"/>
	<circle fill="#F2A25C" cx="-550" cy="880" r="15"/>
	<rect x="-599.999" y="864.999" fill="#F2A25C" width="49.999" height="30.001"/>
	<circle fill="#F2A25C" cx="-620" cy="825" r="15"/>
	<rect x="-635" y="825" fill="#F2A25C" width="30" height="25"/>
	<circle fill="#F2A25C" cx="-620" cy="850" r="15"/>
	<rect x="-620" y="834.999" fill="#F2A25C" width="49.999" height="30.001"/>
	<circle fill="#F2A25C" cx="2130" cy="830.001" r="15"/>
	<rect x="2115" y="830.001" fill="#F2A25C" width="30" height="114.999"/>
	<circle fill="#F2A25C" cx="2165" cy="870.001" r="15"/>
	<rect x="2150" y="870.001" fill="#F2A25C" width="30" height="25"/>
	<circle fill="#F2A25C" cx="2165" cy="895" r="15"/>
	<rect x="2115.001" y="880" fill="#F2A25C" width="49.999" height="30.001"/>
	<circle fill="#F2A25C" cx="2095" cy="840.001" r="15"/>
	<rect x="2080" y="840.001" fill="#F2A25C" width="30" height="25"/>
	<circle fill="#F2A25C" cx="2095" cy="865" r="15"/>
	<rect x="2095" y="850" fill="#F2A25C" width="49.999" height="30.001"/>
	<g id="IHtBlp_1_">
		
			<image overflow="visible" width="900" height="856" id="IHtBlp" xlink:href="27555B12DC233C42.jpg"  transform="matrix(0.24 0 0 0.24 3165 -255)">
		</image>
	</g>
	<polygon fill="none" stroke="#FCEF91" stroke-miterlimit="10" points="3227.155,-253.354 3274.24,-253.354 3274.24,-216.753 
		3278.287,-212.522 3279.206,-213.626 3281.229,-213.626 3282.701,-214.73 3285.276,-214.178 3286.38,-212.522 3286.38,-210.25 
		3288.125,-209.125 3290.25,-209.125 3293.75,-208.25 3297,-208.25 3298.375,-207.625 3300.25,-207.625 3303.875,-208.625 
		3304.875,-205.875 3306.75,-203.375 3308.75,-205.125 3311.875,-205 3314.25,-203.375 3315.375,-203.375 3317.875,-203.375 
		3319.125,-200.75 3320,-202.25 3321,-203.75 3322.75,-203.5 3324.875,-202.75 3328,-203.375 3330,-202.375 3331.25,-200.75 
		3334.25,-202.375 3334.25,-203.375 3337.125,-204 3341.375,-204.25 3343,-205.25 3346.125,-204.5 3348.25,-205.5 
		3350.125,-205.375 3353.25,-202.5 3354.375,-202.5 3355.875,-201.75 3357.5,-199.875 3361,-199.875 3364.125,-198.25 
		3367.875,-198.25 3369.625,-167.625 3373.125,-163.875 3374.625,-158.875 3376.125,-157.625 3376.125,-156.25 3377.5,-154 
		3378.875,-152.28 3378.875,-148 3376,-143.25 3377.375,-141 3377.25,-139 3376.375,-136.75 3377.125,-134.625 3376.5,-132.875 
		3374,-128.875 3374.5,-125.375 3372.625,-123.625 3370,-123 3359.125,-117.625 3351.625,-110.375 3348.125,-107.75 
		3342.875,-105.625 3340.375,-103.5 3338.375,-102.25 3336.375,-102.25 3335,-104.5 3329.875,-104.375 3331.875,-103 
		3332.375,-100.875 3330,-98.125 3328.75,-98.125 3327.375,-99.625 3326.125,-99.625 3326.375,-97 3325.25,-95.125 3323.5,-95.125 
		3322.875,-95.125 3323.625,-93.125 3322.5,-91.625 3320.5,-91 3318.25,-89.125 3316.75,-89.125 3318.625,-86.25 3318.625,-82.625 
		3315.875,-80.125 3315.75,-77.125 3314.5,-72.375 3315.25,-69.125 3318.75,-62.5 3318.5,-59 3320.125,-55.75 3319.75,-54 
		3315.75,-50.875 3310.125,-54.375 3306.25,-55.625 3303.016,-55.625 3298,-58.375 3294.75,-58.625 3290.5,-61 3287.75,-61.5 
		3285.5,-66 3283.75,-67.25 3282.625,-70.75 3279.25,-74 3279.25,-76.25 3281.25,-75.75 3281.25,-78.5 3277.125,-85.625 
		3275.375,-86 3272.125,-92.375 3269.125,-97.5 3265.375,-101 3261.875,-112 3258.75,-116.125 3256.25,-120.125 3254.25,-120.375 
		3252.5,-121.625 3251.5,-124.375 3247.875,-125.875 3239.375,-126.25 3235.875,-127.5 3232.75,-126.125 3230.75,-125.125 
		3230.625,-122.125 3228.125,-119.75 3227.155,-119.375 3227.155,-116.125 3222.5,-111.875 3222.5,-109.625 3220.5,-109.25 
		3215.5,-112 3211.75,-116.375 3206.25,-119 3202.875,-122.75 3199.25,-123.125 3196.875,-126.25 3196.875,-128.625 
		3196.875,-133.375 3194.625,-134.375 3192.5,-141.25 3186.75,-146.75 3184.5,-147.125 3182.125,-149.5 3181.25,-152.28 
		3175.75,-157.125 3173.875,-158.125 3170,-163.5 3168.875,-165.75 3166.625,-166.75 3165.875,-169.625 3166.75,-172.375 
		3170.25,-171.75 3183,-171.5 3197.625,-170.875 3209.125,-170.375 3220.125,-169.875 3223.625,-169.375 	"/>
	<polygon fill="#FCEF91" points="1199.029,-600.354 1319.133,-600.354 1319.133,-506.993 1329.455,-496.202 1331.8,-499.018 
		1336.961,-499.018 1340.715,-501.833 1347.283,-500.425 1350.099,-496.202 1350.099,-490.405 1354.55,-487.536 1359.971,-487.536 
		1368.898,-485.304 1377.188,-485.304 1380.695,-483.709 1385.479,-483.709 1394.725,-486.26 1397.275,-479.246 1402.058,-472.869 
		1407.159,-477.333 1415.131,-477.014 1421.188,-472.869 1424.059,-472.869 1430.436,-472.869 1433.624,-466.173 1435.855,-469.999 
		1438.406,-473.825 1442.87,-473.188 1448.291,-471.274 1456.262,-472.869 1461.363,-470.318 1464.552,-466.173 1472.204,-470.318 
		1472.204,-472.869 1479.538,-474.463 1490.379,-475.101 1494.523,-477.651 1502.495,-475.738 1507.915,-478.289 1512.698,-477.97 
		1520.669,-470.637 1523.539,-470.637 1527.365,-468.724 1531.51,-463.941 1540.438,-463.941 1548.409,-459.796 1557.975,-459.796 
		1562.438,-381.678 1571.366,-372.113 1575.192,-359.359 1579.019,-356.17 1579.019,-352.663 1582.525,-346.924 1586.033,-342.536 
		1586.033,-331.619 1578.699,-319.503 1582.207,-313.764 1581.888,-308.662 1579.656,-302.923 1581.569,-297.503 1579.975,-293.039 
		1573.598,-282.836 1574.873,-273.908 1570.091,-269.444 1563.395,-267.85 1535.655,-254.14 1516.524,-235.646 1507.597,-228.95 
		1494.205,-223.53 1487.828,-218.109 1482.727,-214.921 1477.625,-214.921 1474.117,-220.66 1461.045,-220.342 1466.146,-216.834 
		1467.422,-211.414 1461.363,-204.399 1458.175,-204.399 1454.668,-208.226 1451.479,-208.226 1452.117,-201.529 1449.247,-196.747 
		1444.783,-196.747 1443.189,-196.747 1445.103,-191.646 1442.232,-187.819 1437.131,-186.225 1431.392,-181.442 1427.565,-181.442 
		1432.349,-174.108 1432.349,-164.862 1425.334,-158.485 1425.015,-150.833 1421.826,-138.717 1423.739,-130.427 1432.667,-113.527 
		1432.029,-104.6 1436.175,-96.311 1435.218,-91.846 1425.015,-83.875 1410.667,-92.803 1400.782,-95.991 1392.532,-95.991 
		1379.738,-103.006 1371.449,-103.644 1360.607,-109.701 1353.594,-110.977 1347.854,-122.455 1343.391,-125.645 1340.521,-134.572 
		1331.912,-142.861 1331.912,-148.602 1337.014,-147.326 1337.014,-154.34 1326.491,-172.515 1322.027,-173.471 1313.737,-189.732 
		1306.085,-202.805 1296.52,-211.732 1287.592,-239.791 1279.621,-250.313 1273.244,-260.517 1268.143,-261.154 1263.678,-264.343 
		1261.127,-271.357 1251.881,-275.184 1230.199,-276.14 1221.271,-279.328 1213.301,-275.821 1208.199,-273.271 1207.88,-265.618 
		1201.503,-259.56 1199.029,-258.604 1199.029,-250.313 1187.155,-239.473 1187.155,-233.733 1182.054,-232.776 1169.3,-239.791 
		1159.734,-250.951 1145.705,-257.646 1137.096,-267.212 1127.85,-268.169 1121.791,-276.14 1121.791,-282.198 1121.791,-294.314 
		1116.052,-296.865 1110.632,-314.401 1095.965,-328.431 1090.226,-329.388 1084.167,-335.445 1081.936,-342.536 1067.906,-354.895 
		1063.123,-357.446 1053.239,-371.156 1050.369,-376.896 1044.63,-379.446 1042.717,-386.78 1044.949,-393.794 1053.877,-392.2 
		1086.399,-391.562 1123.704,-389.968 1153.038,-388.693 1181.097,-387.417 1190.024,-386.142 	"/>
	<circle fill="#A64826" cx="1418" cy="-270" r="10"/>
	<g>
		<polygon fill="#FCEF91" points="793.132,166.412 966.883,166.412 966.883,301.475 981.816,317.086 985.207,313.012 
			992.674,313.012 998.105,308.94 1007.607,310.976 1011.68,317.086 1011.68,325.472 1018.119,329.623 1025.963,329.623 
			1038.877,332.852 1050.869,332.852 1055.943,335.158 1062.863,335.158 1076.24,331.468 1079.93,341.616 1086.848,350.841 
			1094.229,344.384 1105.76,344.845 1114.523,350.841 1118.676,350.841 1127.902,350.841 1132.514,360.528 1135.742,354.993 
			1139.432,349.458 1145.891,350.38 1153.732,353.148 1165.264,350.841 1172.645,354.532 1177.256,360.528 1188.326,354.532 
			1188.326,350.841 1198.938,348.535 1214.619,347.612 1220.615,343.922 1232.148,346.69 1239.988,343 1246.908,343.461 
			1258.439,354.07 1262.592,354.07 1268.127,356.838 1274.123,363.757 1287.039,363.757 1298.57,369.753 1312.408,369.753 
			1318.867,482.764 1331.781,496.602 1337.316,515.053 1342.852,519.666 1342.852,524.74 1347.926,533.042 1353,539.39 
			1353,555.184 1342.391,572.711 1347.465,581.014 1347.004,588.395 1343.775,596.697 1346.543,604.538 1344.236,610.996 
			1335.01,625.757 1336.855,638.672 1329.938,645.13 1320.25,647.438 1280.119,667.271 1252.443,694.024 1239.529,703.712 
			1220.154,711.553 1210.93,719.395 1203.549,724.008 1196.17,724.008 1191.094,715.705 1172.184,716.165 1179.564,721.24 
			1181.408,729.081 1172.645,739.229 1168.031,739.229 1162.957,733.693 1158.346,733.693 1159.268,743.381 1155.115,750.299 
			1148.658,750.299 1146.352,750.299 1149.119,757.68 1144.969,763.215 1137.588,765.521 1129.285,772.439 1123.75,772.439 
			1130.67,783.05 1130.67,796.426 1120.521,805.651 1120.059,816.722 1115.447,834.25 1118.215,846.243 1131.129,870.69 
			1130.207,883.606 1136.205,895.598 1134.82,902.057 1120.059,913.588 1099.303,900.672 1085.002,896.06 1073.068,896.06 
			1054.559,885.912 1042.568,884.989 1026.883,876.226 1016.736,874.381 1008.432,857.775 1001.977,853.161 997.824,840.246 
			985.371,828.254 985.371,819.95 992.75,821.795 992.75,811.648 977.527,785.355 971.07,783.973 959.078,760.447 948.007,741.535 
			934.169,728.62 921.253,688.028 909.723,672.806 900.497,658.045 893.117,657.123 886.658,652.51 882.967,642.362 
			869.591,636.827 838.225,635.443 825.31,630.831 813.779,635.904 806.398,639.595 805.937,650.665 796.711,659.43 
			793.132,660.812 793.132,672.806 775.955,688.489 775.955,696.792 768.574,698.177 750.124,688.028 736.286,671.884 
			715.99,662.197 703.535,648.359 690.159,646.975 681.394,635.443 681.394,626.68 681.394,609.15 673.091,605.461 665.25,580.092 
			644.032,559.796 635.729,558.412 626.964,549.648 623.736,539.39 603.44,521.511 596.521,517.82 582.222,497.986 578.07,489.683 
			569.767,485.993 567,475.384 570.229,465.236 583.145,467.542 630.194,468.465 684.162,470.771 726.598,472.616 767.19,474.461 
			780.105,476.307 		"/>
	</g>
	<polygon fill="#FCEF91" points="2251,1170.576 2261.188,1163.115 2248.59,1163.115 2244.694,1151.055 2240.773,1163.115 
		2227.68,1163.115 2238.29,1170.756 2234.395,1182.737 2244.575,1175.281 2254.929,1182.737 	"/>
	<polygon fill="#FCEF91" points="2334,1170.576 2344.188,1163.115 2331.59,1163.115 2327.694,1151.055 2323.773,1163.115 
		2310.68,1163.115 2321.29,1170.756 2317.395,1182.737 2327.575,1175.281 2337.929,1182.737 	"/>
	<polygon fill="#FCEF91" points="2417,1170.576 2427.188,1163.115 2414.59,1163.115 2410.694,1151.055 2406.773,1163.115 
		2393.68,1163.115 2404.29,1170.756 2400.395,1182.737 2410.575,1175.281 2420.929,1182.737 	"/>
	<rect x="2227.68" y="1202.737" fill="#FCEF91" width="199.508" height="35.885"/>
	<rect x="2532.188" y="1151.083" fill="#FCEF91" width="71.755" height="143.452"/>
	<g>
		<path fill="#FCEF91" d="M2728.695,1154.055v65.755h-121.753v-65.755H2728.695 M2731.695,1151.055h-127.753v71.755h127.753
			V1151.055L2731.695,1151.055z"/>
	</g>
	<g>
		<rect x="2603.942" y="1222.81" fill="#FCEF91" width="127.753" height="71.755"/>
	</g>
	<rect x="2227.68" y="1258.622" fill="#FCEF91" width="199.508" height="35.885"/>
	<polygon fill="#523429" points="2574.632,1224.359 2584.819,1216.898 2572.222,1216.898 2568.326,1204.838 2564.405,1216.898 
		2551.312,1216.898 2561.922,1224.539 2558.026,1236.521 2568.207,1229.064 2578.561,1236.521 	"/>
	<rect x="2605.093" y="1219.648" fill="#523429" width="2" height="74.916"/>
	<polygon fill="#C1272D" points="3095.457,1170.576 3105.645,1163.115 3093.047,1163.115 3089.151,1151.055 3085.23,1163.115 
		3072.137,1163.115 3082.747,1170.756 3078.852,1182.737 3089.032,1175.281 3099.386,1182.737 	"/>
	<polygon fill="#C1272D" points="3178.457,1170.576 3188.645,1163.115 3176.047,1163.115 3172.151,1151.055 3168.23,1163.115 
		3155.137,1163.115 3165.747,1170.756 3161.852,1182.737 3172.032,1175.281 3182.386,1182.737 	"/>
	<polygon fill="#C1272D" points="3261.457,1170.576 3271.645,1163.115 3259.047,1163.115 3255.151,1151.055 3251.23,1163.115 
		3238.137,1163.115 3248.747,1170.756 3244.852,1182.737 3255.032,1175.281 3265.386,1182.737 	"/>
	<rect x="3072.137" y="1202.737" fill="#C1272D" width="199.508" height="35.885"/>
	<rect x="3376.645" y="1151.083" fill="#2E3192" width="71.755" height="143.452"/>
	<g>
		<rect x="3448.399" y="1151.055" fill="#FFFFFF" width="127.753" height="71.755"/>
	</g>
	<g>
		<rect x="3448.399" y="1222.81" fill="#C1272D" width="127.753" height="71.755"/>
	</g>
	<rect x="3072.137" y="1258.622" fill="#C1272D" width="199.508" height="35.885"/>
	<polygon fill="#FFFFFF" points="3419.089,1224.359 3429.276,1216.898 3416.679,1216.898 3412.783,1204.838 3408.862,1216.898 
		3395.769,1216.898 3406.379,1224.539 3402.483,1236.521 3412.664,1229.064 3423.018,1236.521 	"/>
	<polygon fill="#C1272D" points="697.75,1855.911 707.938,1848.45 695.34,1848.45 691.444,1836.39 687.523,1848.45 674.43,1848.45 
		685.04,1856.091 681.145,1868.072 691.325,1860.616 701.679,1868.072 	"/>
	<polygon fill="#C1272D" points="780.75,1855.911 790.938,1848.45 778.34,1848.45 774.444,1836.39 770.523,1848.45 757.43,1848.45 
		768.04,1856.091 764.145,1868.072 774.325,1860.616 784.679,1868.072 	"/>
	<polygon fill="#C1272D" points="863.75,1855.911 873.938,1848.45 861.34,1848.45 857.444,1836.39 853.523,1848.45 840.43,1848.45 
		851.04,1856.091 847.145,1868.072 857.325,1860.616 867.679,1868.072 	"/>
	<rect x="674.43" y="1888.072" fill="#C1272D" width="199.508" height="35.885"/>
	<rect x="978.938" y="1836.418" fill="#2E3192" width="71.755" height="143.452"/>
	<g>
		<rect x="1050.692" y="1836.39" fill="#FFFFFF" width="127.753" height="71.755"/>
	</g>
	<g>
		<rect x="1050.692" y="1908.145" fill="#C1272D" width="127.753" height="71.755"/>
	</g>
	<rect x="674.43" y="1943.957" fill="#C1272D" width="199.508" height="35.885"/>
	<polygon fill="#FFFFFF" points="1021.382,1909.694 1031.569,1902.233 1018.972,1902.233 1015.076,1890.173 1011.155,1902.233 
		998.062,1902.233 1008.672,1909.874 1004.776,1921.855 1014.957,1914.399 1025.311,1921.855 	"/>
	<polygon fill="#FCEF91" points="-596.68,1170.576 -586.492,1163.115 -599.09,1163.115 -602.985,1151.055 -606.906,1163.115 
		-620,1163.115 -609.39,1170.756 -613.285,1182.737 -603.104,1175.281 -592.751,1182.737 	"/>
	<polygon fill="#FCEF91" points="-513.68,1170.576 -503.492,1163.115 -516.09,1163.115 -519.985,1151.055 -523.906,1163.115 
		-537,1163.115 -526.39,1170.756 -530.285,1182.737 -520.104,1175.281 -509.751,1182.737 	"/>
	<polygon fill="#FCEF91" points="-430.68,1170.576 -420.492,1163.115 -433.09,1163.115 -436.985,1151.055 -440.906,1163.115 
		-454,1163.115 -443.39,1170.756 -447.285,1182.737 -437.104,1175.281 -426.751,1182.737 	"/>
	<rect x="-620" y="1202.737" fill="#FCEF91" width="199.508" height="35.885"/>
	<rect x="-315.492" y="1151.083" fill="#FCEF91" width="71.755" height="143.452"/>
	<g>
		<path fill="#FCEF91" d="M-118.984,1154.055v65.755h-121.753v-65.755H-118.984 M-115.984,1151.055h-127.753v71.755h127.753
			V1151.055L-115.984,1151.055z"/>
	</g>
	<g>
		<rect x="-243.737" y="1222.81" fill="#FCEF91" width="127.753" height="71.755"/>
	</g>
	<rect x="-620" y="1258.622" fill="#FCEF91" width="199.508" height="35.885"/>
	<polygon fill="#523429" points="-273.048,1224.359 -262.86,1216.898 -275.458,1216.898 -279.354,1204.838 -283.274,1216.898 
		-296.368,1216.898 -285.758,1224.539 -289.653,1236.521 -279.473,1229.064 -269.119,1236.521 	"/>
	<rect x="-240.587" y="1219.648" fill="#523429" width="2" height="74.916"/>
	<polygon fill="#A64826" points="1116.479,646.632 1126.666,639.171 1114.068,639.171 1110.173,627.11 1106.252,639.171 
		1093.158,639.171 1103.769,646.812 1099.873,658.793 1110.054,651.337 1120.407,658.793 	"/>
</g>
<g id="Layer_2" display="none">
	<polygon display="inline" fill="#B86D51" points="0,1080 0,884 60,940 130,990 165,1030 355,1065 465,1025 535,970 610,1030 
		695,1065 775,1075 900,1030 950,1040 1015,1025 1255,1075 1320,1070 1400,1015 1495,995 1540,1025 1565,1015 1595,1025 1770,990 
		1835,915 1920,854 1920,1080 	"/>
	<polygon display="inline" fill="#523429" points="1920,1080 1920,884 1860,940 1790,990 1755,1030 1565,1065 1455,1025 1385,970 
		1310,1030 1225,1065 1145,1075 1020,1030 970,1040 905,1025 665,1075 600,1070 520,1015 425,995 380,1025 355,1015 325,1025 
		150,990 85,915 0,854 0,1080 	"/>
	<g display="inline">
		<circle fill="#523429" cx="695" cy="960" r="15"/>
		<rect x="680" y="960" fill="#523429" width="30" height="114.999"/>
		<circle fill="#523429" cx="660" cy="1000" r="15"/>
		<rect x="645" y="1000" fill="#523429" width="30" height="25"/>
		<circle fill="#523429" cx="660" cy="1025" r="15"/>
		<rect x="660" y="1009.999" fill="#523429" width="49.999" height="30.001"/>
		<circle fill="#523429" cx="730" cy="970" r="15"/>
		<rect x="715" y="970" fill="#523429" width="30" height="25"/>
		<circle fill="#523429" cx="730" cy="995" r="15"/>
		<rect x="680.001" y="979.999" fill="#523429" width="49.999" height="30.001"/>
	</g>
	<g display="inline">
		<circle fill="#523429" cx="1705" cy="969.501" r="10.5"/>
		<rect x="1694.5" y="969.501" fill="#523429" width="21" height="80.499"/>
		<circle fill="#523429" cx="1680.5" cy="997.501" r="10.5"/>
		<rect x="1670" y="997.501" fill="#523429" width="21" height="17.5"/>
		<circle fill="#523429" cx="1680.5" cy="1015" r="10.5"/>
		<rect x="1680.5" y="1004.5" fill="#523429" width="34.999" height="21.001"/>
		<circle fill="#523429" cx="1729.5" cy="976.501" r="10.5"/>
		<rect x="1719" y="976.501" fill="#523429" width="21" height="17.5"/>
		<circle fill="#523429" cx="1729.5" cy="994" r="10.5"/>
		<rect x="1694.501" y="983.5" fill="#523429" width="34.999" height="21.001"/>
	</g>
	<g display="inline">
		<circle fill="#523429" cx="1212.5" cy="1012.75" r="8.25"/>
		<rect x="1204.25" y="1012.75" fill="#523429" width="16.5" height="63.249"/>
		<circle fill="#523429" cx="1231.75" cy="1034.75" r="8.25"/>
		<rect x="1223.5" y="1034.75" fill="#523429" width="16.5" height="13.75"/>
		<circle fill="#523429" cx="1231.75" cy="1048.5" r="8.25"/>
		<rect x="1204.251" y="1040.249" fill="#523429" width="27.499" height="16.501"/>
		<circle fill="#523429" cx="1193.25" cy="1018.25" r="8.25"/>
		<rect x="1185" y="1018.25" fill="#523429" width="16.5" height="13.75"/>
		<circle fill="#523429" cx="1193.25" cy="1032" r="8.25"/>
		<rect x="1193.25" y="1023.749" fill="#523429" width="27.499" height="16.501"/>
	</g>
	<g display="inline">
		<circle fill="#523429" cx="248.077" cy="878.078" r="23.077"/>
		<rect x="225" y="878.078" fill="#523429" width="46.154" height="176.922"/>
		<circle fill="#523429" cx="301.923" cy="939.616" r="23.077"/>
		<rect x="278.846" y="939.616" fill="#523429" width="46.154" height="38.462"/>
		<circle fill="#523429" cx="301.923" cy="978.078" r="23.078"/>
		<rect x="225.001" y="955" fill="#523429" width="76.922" height="46.155"/>
		<circle fill="#523429" cx="194.23" cy="893.463" r="23.077"/>
		<rect x="171.153" y="893.463" fill="#523429" width="46.154" height="38.461"/>
		<circle fill="#523429" cx="194.23" cy="931.923" r="23.078"/>
		<rect x="194.23" y="908.846" fill="#523429" width="76.922" height="46.155"/>
	</g>
</g>
</svg>
