<?xml version="1.0" encoding="utf-8"?>
<!-- Generator: Adobe Illustrator 16.0.0, SVG Export Plug-In . SVG Version: 6.00 Build 0)  -->
<!DOCTYPE svg PUBLIC "-//W3C//DTD SVG 1.1//EN" "http://www.w3.org/Graphics/SVG/1.1/DTD/svg11.dtd">
<svg version="1.1" xmlns="http://www.w3.org/2000/svg" xmlns:xlink="http://www.w3.org/1999/xlink" x="0px" y="0px" width="250px"
	 height="200px" viewBox="0 0 250 200" enable-background="new 0 0 250 200" xml:space="preserve">
<g id="Layer_1">
	<rect x="-2634" y="-2135" fill="#A64826" width="1920" height="1080"/>
	<rect x="-2634" y="-1055" fill="#FCEF91" width="1920" height="599.933"/>
	<rect x="-2634" y="144.865" fill="#FCEF91" width="1920" height="599.933"/>
	<rect x="-2634" y="-455.067" fill="#A64826" width="1920" height="599.933"/>
	<circle fill="#FCEF91" cx="-1674" cy="-3371" r="393.685"/>
	<circle fill="#F2A25C" cx="-3219" cy="-1320" r="15"/>
	<rect x="-3234" y="-1320" fill="#F2A25C" width="30" height="114.999"/>
	<circle fill="#F2A25C" cx="-3184" cy="-1280" r="15"/>
	<rect x="-3199" y="-1280" fill="#F2A25C" width="30" height="25"/>
	<circle fill="#F2A25C" cx="-3184" cy="-1255" r="15"/>
	<rect x="-3233.999" y="-1270.001" fill="#F2A25C" width="49.999" height="30.001"/>
	<circle fill="#F2A25C" cx="-3254" cy="-1310" r="15"/>
	<rect x="-3269" y="-1310" fill="#F2A25C" width="30" height="25"/>
	<circle fill="#F2A25C" cx="-3254" cy="-1285" r="15"/>
	<rect x="-3254" y="-1300.001" fill="#F2A25C" width="49.999" height="30.001"/>
	<circle fill="#F2A25C" cx="-504" cy="-1304.999" r="15"/>
	<rect x="-519" y="-1304.999" fill="#F2A25C" width="30" height="114.999"/>
	<circle fill="#F2A25C" cx="-469" cy="-1264.999" r="15"/>
	<rect x="-484" y="-1264.999" fill="#F2A25C" width="30" height="25"/>
	<circle fill="#F2A25C" cx="-469" cy="-1240" r="15"/>
	<rect x="-518.999" y="-1255" fill="#F2A25C" width="49.999" height="30.001"/>
	<circle fill="#F2A25C" cx="-539" cy="-1294.999" r="15"/>
	<rect x="-554" y="-1294.999" fill="#F2A25C" width="30" height="25"/>
	<circle fill="#F2A25C" cx="-539" cy="-1270" r="15"/>
	<rect x="-539" y="-1285" fill="#F2A25C" width="49.999" height="30.001"/>
	<g id="IHtBlp_1_">
		
			<image overflow="visible" width="900" height="856" id="IHtBlp" xlink:href="7C87CF98CFCA71D2.jpg"  transform="matrix(0.24 0 0 0.24 531 -2390)">
		</image>
	</g>
	<polygon fill="none" stroke="#FCEF91" stroke-miterlimit="10" points="593.155,-2388.354 640.24,-2388.354 640.24,-2351.753 
		644.287,-2347.522 645.206,-2348.626 647.229,-2348.626 648.701,-2349.73 651.276,-2349.178 652.38,-2347.522 652.38,-2345.25 
		654.125,-2344.125 656.25,-2344.125 659.75,-2343.25 663,-2343.25 664.375,-2342.625 666.25,-2342.625 669.875,-2343.625 
		670.875,-2340.875 672.75,-2338.375 674.75,-2340.125 677.875,-2340 680.25,-2338.375 681.375,-2338.375 683.875,-2338.375 
		685.125,-2335.75 686,-2337.25 687,-2338.75 688.75,-2338.5 690.875,-2337.75 694,-2338.375 696,-2337.375 697.25,-2335.75 
		700.25,-2337.375 700.25,-2338.375 703.125,-2339 707.375,-2339.25 709,-2340.25 712.125,-2339.5 714.25,-2340.5 
		716.125,-2340.375 719.25,-2337.5 720.375,-2337.5 721.875,-2336.75 723.5,-2334.875 727,-2334.875 730.125,-2333.25 
		733.875,-2333.25 735.625,-2302.625 739.125,-2298.875 740.625,-2293.875 742.125,-2292.625 742.125,-2291.25 743.5,-2289 
		744.875,-2287.28 744.875,-2283 742,-2278.25 743.375,-2276 743.25,-2274 742.375,-2271.75 743.125,-2269.625 742.5,-2267.875 
		740,-2263.875 740.5,-2260.375 738.625,-2258.625 736,-2258 725.125,-2252.625 717.625,-2245.375 714.125,-2242.75 
		708.875,-2240.625 706.375,-2238.5 704.375,-2237.25 702.375,-2237.25 701,-2239.5 695.875,-2239.375 697.875,-2238 
		698.375,-2235.875 696,-2233.125 694.75,-2233.125 693.375,-2234.625 692.125,-2234.625 692.375,-2232 691.25,-2230.125 
		689.5,-2230.125 688.875,-2230.125 689.625,-2228.125 688.5,-2226.625 686.5,-2226 684.25,-2224.125 682.75,-2224.125 
		684.625,-2221.25 684.625,-2217.625 681.875,-2215.125 681.75,-2212.125 680.5,-2207.375 681.25,-2204.125 684.75,-2197.5 
		684.5,-2194 686.125,-2190.75 685.75,-2189 681.75,-2185.875 676.125,-2189.375 672.25,-2190.625 669.016,-2190.625 664,-2193.375 
		660.75,-2193.625 656.5,-2196 653.75,-2196.5 651.5,-2201 649.75,-2202.25 648.625,-2205.75 645.25,-2209 645.25,-2211.25 
		647.25,-2210.75 647.25,-2213.5 643.125,-2220.625 641.375,-2221 638.125,-2227.375 635.125,-2232.5 631.375,-2236 627.875,-2247 
		624.75,-2251.125 622.25,-2255.125 620.25,-2255.375 618.5,-2256.625 617.5,-2259.375 613.875,-2260.875 605.375,-2261.25 
		601.875,-2262.5 598.75,-2261.125 596.75,-2260.125 596.625,-2257.125 594.125,-2254.75 593.155,-2254.375 593.155,-2251.125 
		588.5,-2246.875 588.5,-2244.625 586.5,-2244.25 581.5,-2247 577.75,-2251.375 572.25,-2254 568.875,-2257.75 565.25,-2258.125 
		562.875,-2261.25 562.875,-2263.625 562.875,-2268.375 560.625,-2269.375 558.5,-2276.25 552.75,-2281.75 550.5,-2282.125 
		548.125,-2284.5 547.25,-2287.28 541.75,-2292.125 539.875,-2293.125 536,-2298.5 534.875,-2300.75 532.625,-2301.75 
		531.875,-2304.625 532.75,-2307.375 536.25,-2306.75 549,-2306.5 563.625,-2305.875 575.125,-2305.375 586.125,-2304.875 
		589.625,-2304.375 	"/>
	<polygon fill="#FCEF91" points="-1434.971,-2735.354 -1314.867,-2735.354 -1314.867,-2641.993 -1304.545,-2631.202 
		-1302.2,-2634.018 -1297.039,-2634.018 -1293.285,-2636.833 -1286.717,-2635.425 -1283.901,-2631.202 -1283.901,-2625.405 
		-1279.45,-2622.536 -1274.029,-2622.536 -1265.102,-2620.304 -1256.812,-2620.304 -1253.305,-2618.709 -1248.521,-2618.709 
		-1239.275,-2621.26 -1236.725,-2614.246 -1231.942,-2607.869 -1226.841,-2612.333 -1218.869,-2612.014 -1212.812,-2607.869 
		-1209.941,-2607.869 -1203.564,-2607.869 -1200.376,-2601.173 -1198.145,-2604.999 -1195.594,-2608.825 -1191.13,-2608.188 
		-1185.709,-2606.274 -1177.738,-2607.869 -1172.637,-2605.318 -1169.448,-2601.173 -1161.796,-2605.318 -1161.796,-2607.869 
		-1154.462,-2609.463 -1143.621,-2610.101 -1139.477,-2612.651 -1131.505,-2610.738 -1126.085,-2613.289 -1121.302,-2612.97 
		-1113.331,-2605.637 -1110.461,-2605.637 -1106.635,-2603.724 -1102.49,-2598.941 -1093.562,-2598.941 -1085.591,-2594.796 
		-1076.025,-2594.796 -1071.562,-2516.678 -1062.634,-2507.113 -1058.808,-2494.359 -1054.981,-2491.17 -1054.981,-2487.663 
		-1051.475,-2481.924 -1047.967,-2477.536 -1047.967,-2466.619 -1055.301,-2454.503 -1051.793,-2448.764 -1052.112,-2443.662 
		-1054.344,-2437.923 -1052.431,-2432.503 -1054.025,-2428.039 -1060.402,-2417.836 -1059.127,-2408.908 -1063.909,-2404.444 
		-1070.605,-2402.85 -1098.345,-2389.14 -1117.476,-2370.646 -1126.403,-2363.95 -1139.795,-2358.53 -1146.172,-2353.109 
		-1151.273,-2349.921 -1156.375,-2349.921 -1159.883,-2355.66 -1172.955,-2355.342 -1167.854,-2351.834 -1166.578,-2346.414 
		-1172.637,-2339.399 -1175.825,-2339.399 -1179.332,-2343.226 -1182.521,-2343.226 -1181.883,-2336.529 -1184.753,-2331.747 
		-1189.217,-2331.747 -1190.811,-2331.747 -1188.897,-2326.646 -1191.768,-2322.819 -1196.869,-2321.225 -1202.608,-2316.442 
		-1206.435,-2316.442 -1201.651,-2309.108 -1201.651,-2299.862 -1208.666,-2293.485 -1208.985,-2285.833 -1212.174,-2273.717 
		-1210.261,-2265.427 -1201.333,-2248.527 -1201.971,-2239.6 -1197.825,-2231.311 -1198.782,-2226.846 -1208.985,-2218.875 
		-1223.333,-2227.803 -1233.218,-2230.991 -1241.468,-2230.991 -1254.262,-2238.006 -1262.551,-2238.644 -1273.393,-2244.701 
		-1280.406,-2245.977 -1286.146,-2257.455 -1290.609,-2260.645 -1293.479,-2269.572 -1302.088,-2277.861 -1302.088,-2283.602 
		-1296.986,-2282.326 -1296.986,-2289.34 -1307.509,-2307.515 -1311.973,-2308.471 -1320.263,-2324.732 -1327.915,-2337.805 
		-1337.48,-2346.732 -1346.408,-2374.791 -1354.379,-2385.313 -1360.756,-2395.517 -1365.857,-2396.154 -1370.322,-2399.343 
		-1372.873,-2406.357 -1382.119,-2410.184 -1403.801,-2411.14 -1412.729,-2414.328 -1420.699,-2410.821 -1425.801,-2408.271 
		-1426.12,-2400.618 -1432.497,-2394.56 -1434.971,-2393.604 -1434.971,-2385.313 -1446.845,-2374.473 -1446.845,-2368.733 
		-1451.946,-2367.776 -1464.7,-2374.791 -1474.266,-2385.951 -1488.295,-2392.646 -1496.904,-2402.212 -1506.15,-2403.169 
		-1512.209,-2411.14 -1512.209,-2417.198 -1512.209,-2429.314 -1517.948,-2431.865 -1523.368,-2449.401 -1538.035,-2463.431 
		-1543.774,-2464.388 -1549.833,-2470.445 -1552.064,-2477.536 -1566.094,-2489.895 -1570.877,-2492.446 -1580.761,-2506.156 
		-1583.631,-2511.896 -1589.37,-2514.446 -1591.283,-2521.78 -1589.051,-2528.794 -1580.123,-2527.2 -1547.601,-2526.562 
		-1510.296,-2524.968 -1480.962,-2523.693 -1452.903,-2522.417 -1443.976,-2521.142 	"/>
	<circle fill="#A64826" cx="-1216" cy="-2405" r="10"/>
	<g>
		<polygon fill="#FCEF91" points="-1840.868,-1968.588 -1667.117,-1968.588 -1667.117,-1833.525 -1652.184,-1817.914 
			-1648.793,-1821.988 -1641.326,-1821.988 -1635.895,-1826.06 -1626.393,-1824.024 -1622.32,-1817.914 -1622.32,-1809.528 
			-1615.881,-1805.377 -1608.037,-1805.377 -1595.123,-1802.148 -1583.131,-1802.148 -1578.057,-1799.842 -1571.137,-1799.842 
			-1557.76,-1803.532 -1554.07,-1793.384 -1547.152,-1784.159 -1539.771,-1790.616 -1528.24,-1790.155 -1519.477,-1784.159 
			-1515.324,-1784.159 -1506.098,-1784.159 -1501.486,-1774.472 -1498.258,-1780.007 -1494.568,-1785.542 -1488.109,-1784.62 
			-1480.268,-1781.852 -1468.736,-1784.159 -1461.355,-1780.468 -1456.744,-1774.472 -1445.674,-1780.468 -1445.674,-1784.159 
			-1435.062,-1786.465 -1419.381,-1787.388 -1413.385,-1791.078 -1401.852,-1788.31 -1394.012,-1792 -1387.092,-1791.539 
			-1375.561,-1780.93 -1371.408,-1780.93 -1365.873,-1778.162 -1359.877,-1771.243 -1346.961,-1771.243 -1335.43,-1765.247 
			-1321.592,-1765.247 -1315.133,-1652.236 -1302.219,-1638.398 -1296.684,-1619.947 -1291.148,-1615.334 -1291.148,-1610.26 
			-1286.074,-1601.958 -1281,-1595.61 -1281,-1579.816 -1291.609,-1562.289 -1286.535,-1553.986 -1286.996,-1546.605 
			-1290.225,-1538.303 -1287.457,-1530.462 -1289.764,-1524.004 -1298.99,-1509.243 -1297.145,-1496.328 -1304.062,-1489.87 
			-1313.75,-1487.562 -1353.881,-1467.729 -1381.557,-1440.976 -1394.471,-1431.288 -1413.846,-1423.447 -1423.07,-1415.605 
			-1430.451,-1410.992 -1437.83,-1410.992 -1442.906,-1419.295 -1461.816,-1418.835 -1454.436,-1413.76 -1452.592,-1405.919 
			-1461.355,-1395.771 -1465.969,-1395.771 -1471.043,-1401.307 -1475.654,-1401.307 -1474.732,-1391.619 -1478.885,-1384.701 
			-1485.342,-1384.701 -1487.648,-1384.701 -1484.881,-1377.32 -1489.031,-1371.785 -1496.412,-1369.479 -1504.715,-1362.561 
			-1510.25,-1362.561 -1503.33,-1351.95 -1503.33,-1338.574 -1513.479,-1329.349 -1513.941,-1318.278 -1518.553,-1300.75 
			-1515.785,-1288.757 -1502.871,-1264.31 -1503.793,-1251.394 -1497.795,-1239.402 -1499.18,-1232.943 -1513.941,-1221.412 
			-1534.697,-1234.328 -1548.998,-1238.94 -1560.932,-1238.94 -1579.441,-1249.088 -1591.432,-1250.011 -1607.117,-1258.774 
			-1617.264,-1260.619 -1625.568,-1277.225 -1632.023,-1281.839 -1636.176,-1294.754 -1648.629,-1306.746 -1648.629,-1315.05 
			-1641.25,-1313.205 -1641.25,-1323.352 -1656.473,-1349.645 -1662.93,-1351.027 -1674.922,-1374.553 -1685.993,-1393.465 
			-1699.831,-1406.38 -1712.747,-1446.972 -1724.277,-1462.194 -1733.503,-1476.955 -1740.883,-1477.877 -1747.342,-1482.49 
			-1751.033,-1492.638 -1764.409,-1498.173 -1795.775,-1499.557 -1808.69,-1504.169 -1820.221,-1499.096 -1827.602,-1495.405 
			-1828.063,-1484.335 -1837.289,-1475.57 -1840.868,-1474.188 -1840.868,-1462.194 -1858.045,-1446.511 -1858.045,-1438.208 
			-1865.426,-1436.823 -1883.876,-1446.972 -1897.714,-1463.116 -1918.01,-1472.803 -1930.465,-1486.641 -1943.841,-1488.025 
			-1952.606,-1499.557 -1952.606,-1508.32 -1952.606,-1525.85 -1960.909,-1529.539 -1968.75,-1554.908 -1989.968,-1575.204 
			-1998.271,-1576.588 -2007.036,-1585.352 -2010.264,-1595.61 -2030.56,-1613.489 -2037.479,-1617.18 -2051.778,-1637.014 
			-2055.93,-1645.317 -2064.233,-1649.007 -2067,-1659.616 -2063.771,-1669.764 -2050.855,-1667.458 -2003.806,-1666.535 
			-1949.838,-1664.229 -1907.402,-1662.384 -1866.81,-1660.539 -1853.895,-1658.693 		"/>
	</g>
	<polygon fill="#FCEF91" points="-383,-964.424 -372.812,-971.885 -385.41,-971.885 -389.306,-983.945 -393.227,-971.885 
		-406.32,-971.885 -395.71,-964.244 -399.605,-952.263 -389.425,-959.719 -379.071,-952.263 	"/>
	<polygon fill="#FCEF91" points="-300,-964.424 -289.812,-971.885 -302.41,-971.885 -306.306,-983.945 -310.227,-971.885 
		-323.32,-971.885 -312.71,-964.244 -316.605,-952.263 -306.425,-959.719 -296.071,-952.263 	"/>
	<polygon fill="#FCEF91" points="-217,-964.424 -206.812,-971.885 -219.41,-971.885 -223.306,-983.945 -227.227,-971.885 
		-240.32,-971.885 -229.71,-964.244 -233.605,-952.263 -223.425,-959.719 -213.071,-952.263 	"/>
	<rect x="-406.32" y="-932.263" fill="#FCEF91" width="199.508" height="35.885"/>
	<rect x="-101.812" y="-983.917" fill="#FCEF91" width="71.755" height="143.452"/>
	<g>
		<path fill="#FCEF91" d="M94.695-980.945v65.755H-27.058v-65.755H94.695 M97.695-983.945H-30.058v71.755H97.695V-983.945
			L97.695-983.945z"/>
	</g>
	<g>
		<rect x="-30.058" y="-912.19" fill="#FCEF91" width="127.753" height="71.755"/>
	</g>
	<rect x="-406.32" y="-876.378" fill="#FCEF91" width="199.508" height="35.885"/>
	<polygon fill="#523429" points="-59.368,-910.641 -49.181,-918.102 -61.778,-918.102 -65.674,-930.162 -69.595,-918.102 
		-82.688,-918.102 -72.078,-910.461 -75.974,-898.479 -65.793,-905.936 -55.439,-898.479 	"/>
	<rect x="-28.907" y="-915.352" fill="#523429" width="2" height="74.916"/>
	<polygon fill="#C1272D" points="461.457,-964.424 471.645,-971.885 459.047,-971.885 455.151,-983.945 451.23,-971.885 
		438.137,-971.885 448.747,-964.244 444.852,-952.263 455.032,-959.719 465.386,-952.263 	"/>
	<polygon fill="#C1272D" points="544.457,-964.424 554.645,-971.885 542.047,-971.885 538.151,-983.945 534.23,-971.885 
		521.137,-971.885 531.747,-964.244 527.852,-952.263 538.032,-959.719 548.386,-952.263 	"/>
	<polygon fill="#C1272D" points="627.457,-964.424 637.645,-971.885 625.047,-971.885 621.151,-983.945 617.23,-971.885 
		604.137,-971.885 614.747,-964.244 610.852,-952.263 621.032,-959.719 631.386,-952.263 	"/>
	<rect x="438.137" y="-932.263" fill="#C1272D" width="199.508" height="35.885"/>
	<rect x="742.645" y="-983.917" fill="#2E3192" width="71.755" height="143.452"/>
	<g>
		<rect x="814.399" y="-983.945" fill="#FFFFFF" width="127.753" height="71.755"/>
	</g>
	<g>
		<rect x="814.399" y="-912.19" fill="#C1272D" width="127.753" height="71.755"/>
	</g>
	<rect x="438.137" y="-876.378" fill="#C1272D" width="199.508" height="35.885"/>
	<polygon fill="#FFFFFF" points="785.089,-910.641 795.276,-918.102 782.679,-918.102 778.783,-930.162 774.862,-918.102 
		761.769,-918.102 772.379,-910.461 768.483,-898.479 778.664,-905.936 789.018,-898.479 	"/>
	<rect x="-1655.062" y="-298.582" fill="#2E3192" width="71.755" height="143.452"/>
	<g>
		<rect x="-1583.308" y="-298.61" fill="#FFFFFF" width="127.753" height="71.755"/>
	</g>
	<g>
		<rect x="-1583.308" y="-226.855" fill="#C1272D" width="127.753" height="71.755"/>
	</g>
	<g>
		<polygon fill="#FCEF91" points="-1936.25,-279.089 -1926.062,-286.55 -1938.66,-286.55 -1942.556,-298.61 -1946.477,-286.55 
			-1959.57,-286.55 -1948.96,-278.909 -1952.855,-266.928 -1942.675,-274.384 -1932.321,-266.928 		"/>
		<polygon fill="#FCEF91" points="-1853.25,-279.089 -1843.062,-286.55 -1855.66,-286.55 -1859.556,-298.61 -1863.477,-286.55 
			-1876.57,-286.55 -1865.96,-278.909 -1869.855,-266.928 -1859.675,-274.384 -1849.321,-266.928 		"/>
		<polygon fill="#FCEF91" points="-1770.25,-279.089 -1760.062,-286.55 -1772.66,-286.55 -1776.556,-298.61 -1780.477,-286.55 
			-1793.57,-286.55 -1782.96,-278.909 -1786.855,-266.928 -1776.675,-274.384 -1766.321,-266.928 		"/>
		<rect x="-1959.57" y="-246.928" fill="#FCEF91" width="199.508" height="35.885"/>
		<rect x="-1959.57" y="-191.043" fill="#FCEF91" width="199.508" height="35.885"/>
	</g>
	<polygon fill="#C1272D" points="-1731.496,251.965 -1721.309,244.504 -1733.906,244.504 -1737.802,232.443 -1741.723,244.504 
		-1754.816,244.504 -1744.206,252.145 -1748.102,264.126 -1737.921,256.67 -1727.567,264.126 	"/>
	<polygon fill="#C1272D" points="-1648.496,251.965 -1638.309,244.504 -1650.906,244.504 -1654.802,232.443 -1658.723,244.504 
		-1671.816,244.504 -1661.206,252.145 -1665.102,264.126 -1654.921,256.67 -1644.567,264.126 	"/>
	<polygon fill="#C1272D" points="-1565.496,251.965 -1555.309,244.504 -1567.906,244.504 -1571.802,232.443 -1575.723,244.504 
		-1588.816,244.504 -1578.206,252.145 -1582.102,264.126 -1571.921,256.67 -1561.567,264.126 	"/>
	<rect x="-1754.816" y="284.126" fill="#C1272D" width="199.508" height="35.885"/>
	<rect x="-1754.816" y="340.011" fill="#C1272D" width="199.508" height="35.885"/>
	<polygon fill="#FFFFFF" points="-1612.618,-225.306 -1602.431,-232.767 -1615.028,-232.767 -1618.924,-244.827 -1622.845,-232.767 
		-1635.938,-232.767 -1625.328,-225.126 -1629.224,-213.145 -1619.043,-220.601 -1608.689,-213.145 	"/>
	<polygon fill="#FCEF91" points="-3230.68,-964.424 -3220.492,-971.885 -3233.09,-971.885 -3236.985,-983.945 -3240.906,-971.885 
		-3254,-971.885 -3243.39,-964.244 -3247.285,-952.263 -3237.104,-959.719 -3226.751,-952.263 	"/>
	<polygon fill="#FCEF91" points="-3147.68,-964.424 -3137.492,-971.885 -3150.09,-971.885 -3153.985,-983.945 -3157.906,-971.885 
		-3171,-971.885 -3160.39,-964.244 -3164.285,-952.263 -3154.104,-959.719 -3143.751,-952.263 	"/>
	<polygon fill="#FCEF91" points="-3064.68,-964.424 -3054.492,-971.885 -3067.09,-971.885 -3070.985,-983.945 -3074.906,-971.885 
		-3088,-971.885 -3077.39,-964.244 -3081.285,-952.263 -3071.104,-959.719 -3060.751,-952.263 	"/>
	<rect x="-3254" y="-932.263" fill="#FCEF91" width="199.508" height="35.885"/>
	<rect x="-2949.492" y="-983.917" fill="#FCEF91" width="71.755" height="143.452"/>
	<g>
		<path fill="#FCEF91" d="M-2752.984-980.945v65.755h-121.753v-65.755H-2752.984 M-2749.984-983.945h-127.753v71.755h127.753
			V-983.945L-2749.984-983.945z"/>
	</g>
	<g>
		<rect x="-2877.737" y="-912.19" fill="#FCEF91" width="127.753" height="71.755"/>
	</g>
	<rect x="-3254" y="-876.378" fill="#FCEF91" width="199.508" height="35.885"/>
	<polygon fill="#523429" points="-2907.048,-910.641 -2896.86,-918.102 -2909.458,-918.102 -2913.354,-930.162 -2917.274,-918.102 
		-2930.368,-918.102 -2919.758,-910.461 -2923.653,-898.479 -2913.473,-905.936 -2903.119,-898.479 	"/>
	<rect x="-2874.587" y="-915.352" fill="#523429" width="2" height="74.916"/>
	<polygon fill="#A64826" points="-1517.521,-1488.368 -1507.334,-1495.829 -1519.932,-1495.829 -1523.827,-1507.89 
		-1527.748,-1495.829 -1540.842,-1495.829 -1530.231,-1488.188 -1534.127,-1476.207 -1523.946,-1483.663 -1513.593,-1476.207 	"/>
	<circle fill="#523429" cx="-1858" cy="629" r="55"/>
	
		<image overflow="visible" width="15" height="9" xlink:href="../../../Desktop/Screen Shot 2014-03-04 at 8.40.50 AM.png"  transform="matrix(1 0 0 1 72 1320)">
	</image>
	<g>
		<g>
			<rect y="74.884" fill="#FCEF91" width="250" height="44.967"/>
			<rect y="144.912" fill="#FCEF91" width="250" height="44.967"/>
		</g>
		<path fill="#FCEF91" d="M42.285,13.689c-2.301-2.302-5.359-3.568-8.613-3.568c-3.252,0-6.312,1.267-8.611,3.568
			c-0.861,0.859-1.576,1.824-2.135,2.867c-0.559-1.043-1.273-2.008-2.133-2.867c-2.301-2.302-5.361-3.568-8.613-3.568
			c-3.253,0-6.312,1.267-8.611,3.568C1.267,15.988,0,19.046,0,22.301c0,3.253,1.267,6.312,3.568,8.611l17.257,18.413
			c0.543,0.585,1.303,0.916,2.101,0.916s1.559-0.331,2.1-0.916l17.26-18.413c2.3-2.299,3.566-5.358,3.566-8.611
			C45.852,19.046,44.585,15.988,42.285,13.689z"/>
		<path fill="#FCEF91" d="M246.434,13.689c-2.301-2.302-5.359-3.568-8.613-3.568c-3.252,0-6.312,1.267-8.611,3.568
			c-0.861,0.859-1.576,1.824-2.135,2.867c-0.559-1.043-1.273-2.008-2.133-2.867c-2.301-2.302-5.361-3.568-8.613-3.568
			c-3.253,0-6.312,1.267-8.611,3.568c-2.302,2.299-3.568,5.356-3.568,8.611c0,3.253,1.267,6.312,3.568,8.611l17.257,18.413
			c0.543,0.585,1.303,0.916,2.101,0.916s1.559-0.331,2.1-0.916l17.26-18.413c2.3-2.299,3.566-5.358,3.566-8.611
			C250,19.046,248.733,15.988,246.434,13.689z"/>
		<path fill="#FCEF91" d="M144.359,13.689c-2.301-2.302-5.359-3.568-8.613-3.568c-3.252,0-6.312,1.267-8.611,3.568
			c-0.861,0.859-1.576,1.824-2.135,2.867c-0.559-1.043-1.273-2.008-2.133-2.867c-2.301-2.302-5.361-3.568-8.613-3.568
			c-3.253,0-6.312,1.267-8.611,3.568c-2.302,2.299-3.568,5.356-3.568,8.611c0,3.253,1.267,6.312,3.568,8.611l17.257,18.413
			c0.543,0.585,1.303,0.916,2.101,0.916s1.559-0.331,2.1-0.916l17.26-18.413c2.3-2.299,3.566-5.358,3.566-8.611
			C147.926,19.046,146.659,15.988,144.359,13.689z"/>
	</g>
</g>
<g id="Layer_2" display="none">
	<polygon display="inline" fill="#B86D51" points="-2634,-1055 -2634,-1251 -2574,-1195 -2504,-1145 -2469,-1105 -2279,-1070 
		-2169,-1110 -2099,-1165 -2024,-1105 -1939,-1070 -1859,-1060 -1734,-1105 -1684,-1095 -1619,-1110 -1379,-1060 -1314,-1065 
		-1234,-1120 -1139,-1140 -1094,-1110 -1069,-1120 -1039,-1110 -864,-1145 -799,-1220 -714,-1281 -714,-1055 	"/>
	<polygon display="inline" fill="#523429" points="-714,-1055 -714,-1251 -774,-1195 -844,-1145 -879,-1105 -1069,-1070 
		-1179,-1110 -1249,-1165 -1324,-1105 -1409,-1070 -1489,-1060 -1614,-1105 -1664,-1095 -1729,-1110 -1969,-1060 -2034,-1065 
		-2114,-1120 -2209,-1140 -2254,-1110 -2279,-1120 -2309,-1110 -2484,-1145 -2549,-1220 -2634,-1281 -2634,-1055 	"/>
	<g display="inline">
		<circle fill="#523429" cx="-1939" cy="-1175" r="15"/>
		<rect x="-1954" y="-1175" fill="#523429" width="30" height="114.999"/>
		<circle fill="#523429" cx="-1974" cy="-1135" r="15"/>
		<rect x="-1989" y="-1135" fill="#523429" width="30" height="25"/>
		<circle fill="#523429" cx="-1974" cy="-1110" r="15"/>
		<rect x="-1974" y="-1125.001" fill="#523429" width="49.999" height="30.001"/>
		<circle fill="#523429" cx="-1904" cy="-1165" r="15"/>
		<rect x="-1919" y="-1165" fill="#523429" width="30" height="25"/>
		<circle fill="#523429" cx="-1904" cy="-1140" r="15"/>
		<rect x="-1953.999" y="-1155.001" fill="#523429" width="49.999" height="30.001"/>
	</g>
	<g display="inline">
		<circle fill="#523429" cx="-929" cy="-1165.499" r="10.5"/>
		<rect x="-939.5" y="-1165.499" fill="#523429" width="21" height="80.499"/>
		<circle fill="#523429" cx="-953.5" cy="-1137.499" r="10.5"/>
		<rect x="-964" y="-1137.499" fill="#523429" width="21" height="17.5"/>
		<circle fill="#523429" cx="-953.5" cy="-1120" r="10.5"/>
		<rect x="-953.5" y="-1130.5" fill="#523429" width="34.999" height="21.001"/>
		<circle fill="#523429" cx="-904.5" cy="-1158.499" r="10.5"/>
		<rect x="-915" y="-1158.499" fill="#523429" width="21" height="17.5"/>
		<circle fill="#523429" cx="-904.5" cy="-1141" r="10.5"/>
		<rect x="-939.499" y="-1151.5" fill="#523429" width="34.999" height="21.001"/>
	</g>
	<g display="inline">
		<circle fill="#523429" cx="-1421.5" cy="-1122.25" r="8.25"/>
		<rect x="-1429.75" y="-1122.25" fill="#523429" width="16.5" height="63.249"/>
		<circle fill="#523429" cx="-1402.25" cy="-1100.25" r="8.25"/>
		<rect x="-1410.5" y="-1100.25" fill="#523429" width="16.5" height="13.75"/>
		<circle fill="#523429" cx="-1402.25" cy="-1086.5" r="8.25"/>
		<rect x="-1429.749" y="-1094.751" fill="#523429" width="27.499" height="16.501"/>
		<circle fill="#523429" cx="-1440.75" cy="-1116.75" r="8.25"/>
		<rect x="-1449" y="-1116.75" fill="#523429" width="16.5" height="13.75"/>
		<circle fill="#523429" cx="-1440.75" cy="-1103" r="8.25"/>
		<rect x="-1440.75" y="-1111.251" fill="#523429" width="27.499" height="16.501"/>
	</g>
	<g display="inline">
		<circle fill="#523429" cx="-2385.923" cy="-1256.922" r="23.077"/>
		<rect x="-2409" y="-1256.922" fill="#523429" width="46.154" height="176.922"/>
		<circle fill="#523429" cx="-2332.077" cy="-1195.384" r="23.077"/>
		<rect x="-2355.154" y="-1195.384" fill="#523429" width="46.154" height="38.462"/>
		<circle fill="#523429" cx="-2332.077" cy="-1156.922" r="23.078"/>
		<rect x="-2408.999" y="-1180" fill="#523429" width="76.922" height="46.155"/>
		<circle fill="#523429" cx="-2439.77" cy="-1241.537" r="23.077"/>
		<rect x="-2462.847" y="-1241.537" fill="#523429" width="46.154" height="38.461"/>
		<circle fill="#523429" cx="-2439.77" cy="-1203.077" r="23.078"/>
		<rect x="-2439.77" y="-1226.154" fill="#523429" width="76.922" height="46.155"/>
	</g>
</g>
</svg>
